<?xml version="1.0" encoding="UTF-8"?>
<svg version="1.1" xmlns="http://www.w3.org/2000/svg" width="225" height="225">
<path d="M0 0 C74.25 0 148.5 0 225 0 C225 74.25 225 148.5 225 225 C150.75 225 76.5 225 0 225 C0 150.75 0 76.5 0 0 Z " fill="#FDFDFD" transform="translate(0,0)"/>
<path d="M0 0 C4.44847017 -0.53460843 8.57339352 -0.78858785 13 0 C16.757141 3.29597568 18.44466737 7.3340021 20 12 C17.69 12 15.38 12 13 12 C13 27.51 13 43.02 13 59 C30.82 59 48.64 59 67 59 C67 51.74 67 44.48 67 37 C71 39 71 39 72 40 C72.08737645 41.85369611 72.10698153 43.71067541 72.09765625 45.56640625 C72.09515869 46.57904541 72.09266113 47.59168457 72.09008789 48.63500977 C72.08098389 49.93108154 72.07187988 51.22715332 72.0625 52.5625 C72.041875 56.666875 72.02125 60.77125 72 65 C58.47 65 44.94 65 31 65 C31 73.91 31 82.82 31 92 C18.64531904 92.95958687 18.64531904 92.95958687 14.06640625 90.2890625 C11.81967509 88.29756 9.815204 86.39145924 8 84 C8 83.34 8 82.68 8 82 C7.13375 81.62875 7.13375 81.62875 6.25 81.25 C3.46118977 79.70066098 1.87977258 78.61825467 0 76 C-0.17089844 73.79321289 -0.17089844 73.79321289 -0.109375 71.34765625 C-0.09358398 70.53433838 -0.07779297 69.72102051 -0.06152344 68.88305664 C-0.03106934 67.9509436 -0.03106934 67.9509436 0 67 C-0.61974197 67.01110306 -1.23948395 67.02220612 -1.87800598 67.03364563 C-8.31769423 67.14410688 -14.75711427 67.21961209 -21.19750977 67.2746582 C-23.60224332 67.29983101 -26.00690015 67.33397182 -28.41137695 67.37719727 C-31.86428733 67.43772467 -35.31618795 67.46618244 -38.76953125 67.48828125 C-40.38683891 67.52699089 -40.38683891 67.52699089 -42.03681946 67.56648254 C-44.78246994 67.56751861 -47.30734952 67.53714142 -50 67 C-52.0769043 64.59448242 -52.0769043 64.59448242 -53 62 C-53.66 61.34 -54.32 60.68 -55 60 C-55.22705078 57.47802734 -55.22705078 57.47802734 -55.1953125 54.3359375 C-55.18886719 53.21445313 -55.18242188 52.09296875 -55.17578125 50.9375 C-55.15902344 49.761875 -55.14226563 48.58625 -55.125 47.375 C-55.11597656 46.19164062 -55.10695312 45.00828125 -55.09765625 43.7890625 C-55.07402812 40.85917477 -55.04108514 37.9296866 -55 35 C-49.82729601 34.34092961 -45.14529914 33.99472097 -40 35 C-38.21875 37.4140625 -38.21875 37.4140625 -36.9375 40.4375 C-35.6348089 43.61832179 -35.6348089 43.61832179 -33 46 C-25.89926317 47.81307578 -18.26262127 47.26714518 -11 47 C-11 42.05 -11 37.1 -11 32 C-12.24136719 32.08121094 -13.48273438 32.16242188 -14.76171875 32.24609375 C-16.40357202 32.31176788 -18.04550516 32.37546627 -19.6875 32.4375 C-20.50412109 32.49615234 -21.32074219 32.55480469 -22.16210938 32.61523438 C-25.42158074 32.70760806 -27.93217083 32.71219323 -30.69775391 30.86767578 C-35.79951216 25.03529536 -34 20.18306978 -34 12 C-22.78 12 -11.56 12 0 12 C0 8.04 0 4.08 0 0 Z " fill="#5C5469" transform="translate(102,34)"/>
<path d="M0 0 C2.12563103 0.11376617 4.2505261 0.24135631 6.375 0.375 C8.15003906 0.47941406 8.15003906 0.47941406 9.9609375 0.5859375 C13 1 13 1 15 3 C15.66 3.33 16.32 3.66 17 4 C17 3.01 17 2.02 17 1 C24.26 1 31.52 1 39 1 C39 3.64 39 6.28 39 9 C34.38 9 29.76 9 25 9 C25 10.98 25 12.96 25 15 C29.29 15 33.58 15 38 15 C38.495 17.97 38.495 17.97 39 21 C40.98491642 20.73323796 40.98491642 20.73323796 43 20 C44.18695553 16.43913342 44.35095418 13.02668976 44.5625 9.3125 C44.62727539 8.2596582 44.62727539 8.2596582 44.69335938 7.18554688 C44.7991736 5.45724794 44.90006581 3.7286489 45 2 C47.64 2 50.28 2 53 2 C53.77183035 3.68704421 54.54240925 5.37466099 55.3125 7.0625 C55.74175781 8.00222656 56.17101562 8.94195312 56.61328125 9.91015625 C58.1149092 13.25603713 59.5553413 16.6291297 61 20 C61.33 14.06 61.66 8.12 62 2 C63.98 2 65.96 2 68 2 C68 13.88 68 25.76 68 38 C65.69 38 63.38 38 61 38 C60.040062 35.93824636 59.08211576 33.87556531 58.125 31.8125 C57.59132813 30.66394531 57.05765625 29.51539063 56.5078125 28.33203125 C55.26545048 25.58660429 54.11916426 22.79791064 53 20 C52.67 25.94 52.34 31.88 52 38 C49.36 38 46.72 38 44 38 C44 38.66 44 39.32 44 40 C39.52055965 39.86189095 35.04153217 39.71322584 30.5625 39.5625 C28.6434082 39.50352539 28.6434082 39.50352539 26.68554688 39.44335938 C24.86313477 39.38051758 24.86313477 39.38051758 23.00390625 39.31640625 C21.87799072 39.27974854 20.7520752 39.24309082 19.59204102 39.20532227 C17 39 17 39 16 38 C13.98035801 37.92755947 11.95832876 37.91622812 9.9375 37.9375 C8.83277344 37.94652344 7.72804688 37.95554688 6.58984375 37.96484375 C5.30787109 37.98224609 5.30787109 37.98224609 4 38 C3.34865075 36.43979133 2.70417036 34.87671421 2.0625 33.3125 C1.70285156 32.44238281 1.34320313 31.57226562 0.97265625 30.67578125 C0.0429688 28.11820735 -0.54162625 25.6778677 -1 23 C-3.16749754 24.31974709 -3.16749754 24.31974709 -5 27 C-5.6575225 30.65582511 -5.87210648 34.29108788 -6 38 C-7.98 38 -9.96 38 -12 38 C-12 25.79 -12 13.58 -12 1 C-3 1 -3 1 0 2 C0 1.34 0 0.68 0 0 Z " fill="#FAF7F8" transform="translate(22,140)"/>
<path d="M0 0 C1.21429688 -0.00644531 2.42859375 -0.01289062 3.6796875 -0.01953125 C12.23700876 0.17838037 12.23700876 0.17838037 15.31225586 2.39868164 C19.5909842 7.8635471 18.74862581 13.34946059 18.375 20 C11.775 20 5.175 20 -1.625 20 C-1.625 25.28 -1.625 30.56 -1.625 36 C5.305 36 12.235 36 19.375 36 C19.375 32.04 19.375 28.08 19.375 24 C25.81 23.505 25.81 23.505 32.375 23 C32.375 22.34 32.375 21.68 32.375 21 C33.035 21 33.695 21 34.375 21 C34.705 20.34 35.035 19.68 35.375 19 C35.87 21.475 35.87 21.475 36.375 24 C37.035 24 37.695 24 38.375 24 C39.47411549 27.29734646 39.4889456 29.72958745 39.47265625 33.19921875 C39.46943359 34.40771484 39.46621094 35.61621094 39.46289062 36.86132812 C39.45032227 38.7552832 39.45032227 38.7552832 39.4375 40.6875 C39.43298828 41.96173828 39.42847656 43.23597656 39.42382812 44.54882812 C39.41202873 47.69926564 39.39556597 50.84960949 39.375 54 C39.045 54 38.715 54 38.375 54 C38.3656543 53.25838623 38.35630859 52.51677246 38.34667969 51.75268555 C38.29304249 48.39694286 38.20938207 45.04260438 38.125 41.6875 C38.11082031 40.52025391 38.09664062 39.35300781 38.08203125 38.15039062 C38.04980469 37.03212891 38.01757812 35.91386719 37.984375 34.76171875 C37.96342773 33.73006592 37.94248047 32.69841309 37.92089844 31.63549805 C37.56483584 28.45313205 37.56483584 28.45313205 33.375 26 C33.375 33.26 33.375 40.52 33.375 48 C15.555 48 -2.265 48 -20.625 48 C-20.625 32.49 -20.625 16.98 -20.625 1 C-13.58464205 -0.00576542 -7.07925426 -0.14370281 0 0 Z " fill="#F9F7F9" transform="translate(135.625,45)"/>
<path d="M0 0 C10.56 0 21.12 0 32 0 C32 15.18 32 30.36 32 46 C24.47025861 46.02290222 16.94063709 46.04283138 9.41088867 46.05493164 C6.84708243 46.0599737 4.28327909 46.06680714 1.71948242 46.07543945 C-1.95655021 46.08751064 -5.63254498 46.09322942 -9.30859375 46.09765625 C-10.46274277 46.10281754 -11.61689178 46.10797882 -12.80601501 46.11329651 C-13.86703934 46.11337204 -14.92806366 46.11344757 -16.02124023 46.11352539 C-16.96055893 46.115746 -17.89987762 46.11796661 -18.86766052 46.12025452 C-21 46 -21 46 -22 45 C-22.08700342 43.36527118 -22.10701063 41.72685945 -22.09765625 40.08984375 C-22.09443359 39.10048828 -22.09121094 38.11113281 -22.08789062 37.09179688 C-22.07951172 36.05087891 -22.07113281 35.00996094 -22.0625 33.9375 C-22.05798828 32.89271484 -22.05347656 31.84792969 -22.04882812 30.77148438 C-22.03699913 28.1809334 -22.02051689 25.59049441 -22 23 C-20.02090602 22.97313447 -18.04171029 22.95366625 -16.0625 22.9375 C-14.96035156 22.92589844 -13.85820313 22.91429688 -12.72265625 22.90234375 C-10 23 -10 23 -9 24 C-9 27.63 -9 31.26 -9 35 C1.23 35 11.46 35 22 35 C22 27.08 22 19.16 22 11 C14.74 11 7.48 11 0 11 C0 7.37 0 3.74 0 0 Z " fill="#F5F4F6" transform="translate(70,47)"/>
<path d="M0 0 C8 8 8 8 8 11 C5.69 11 3.38 11 1 11 C1 26.51 1 42.02 1 58 C18.82 58 36.64 58 55 58 C55 50.74 55 43.48 55 36 C59 38 59 38 60 39 C60.08737645 40.85369611 60.10698153 42.71067541 60.09765625 44.56640625 C60.09515869 45.57904541 60.09266113 46.59168457 60.09008789 47.63500977 C60.08098389 48.93108154 60.07187988 50.22715332 60.0625 51.5625 C60.041875 55.666875 60.02125 59.77125 60 64 C46.47 64 32.94 64 19 64 C19 72.91 19 81.82 19 91 C6.64531904 91.95958687 6.64531904 91.95958687 2.06640625 89.2890625 C-0.18032491 87.29756 -2.184796 85.39145924 -4 83 C-4 82.34 -4 81.68 -4 81 C-4.598125 80.773125 -5.19625 80.54625 -5.8125 80.3125 C-8.56351888 78.66188867 -9.52484637 76.8027919 -11 74 C-7.37 74 -3.74 74 0 74 C0 49.58 0 25.16 0 0 Z " fill="#402870" transform="translate(114,35)"/>
<path d="M0 0 C15 0 15 0 20 3 C23.75484324 7.4025127 23.45128233 11.93245862 23.375 17.4375 C23.38660156 18.27087891 23.39820313 19.10425781 23.41015625 19.96289062 C23.38621211 25.01111249 22.95552109 28.72159283 20 33 C15 36 15 36 0 36 C0 24.12 0 12.24 0 0 Z " fill="#423164" transform="translate(141,142)"/>
<path d="M0 0 C3.3 0 6.6 0 10 0 C10 24.09 10 48.18 10 73 C6.7 73 3.4 73 0 73 C0 48.91 0 24.82 0 0 Z " fill="#FBF9FB" transform="translate(104,36)"/>
<path d="M0 0 C2.31 0 4.62 0 7 0 C9.64 5.61 12.28 11.22 15 17 C15.33 11.39 15.66 5.78 16 0 C18.31 0 20.62 0 23 0 C23 11.88 23 23.76 23 36 C20.36 36 17.72 36 15 36 C14.67386719 35.20335937 14.34773438 34.40671875 14.01171875 33.5859375 C13.57472656 32.52632812 13.13773438 31.46671875 12.6875 30.375 C12.25824219 29.33085937 11.82898438 28.28671875 11.38671875 27.2109375 C10.03840145 24.0889183 8.52085262 21.04170524 7 18 C6.67 23.94 6.34 29.88 6 36 C4.02 36 2.04 36 0 36 C0 24.12 0 12.24 0 0 Z " fill="#432E72" transform="translate(111,142)"/>
<path d="M0 0 C2.31 0 4.62 0 7 0 C7.77183035 1.68704421 8.54240925 3.37466099 9.3125 5.0625 C9.74175781 6.00222656 10.17101562 6.94195312 10.61328125 7.91015625 C12.1149092 11.25603713 13.5553413 14.6291297 15 18 C15.495 9.09 15.495 9.09 16 0 C17.98 0 19.96 0 22 0 C22 11.88 22 23.76 22 36 C19.69 36 17.38 36 15 36 C14.040062 33.93824636 13.08211576 31.87556531 12.125 29.8125 C11.32449219 28.08966797 11.32449219 28.08966797 10.5078125 26.33203125 C9.26545048 23.58660429 8.11916426 20.79791064 7 18 C6.67 23.94 6.34 29.88 6 36 C4.02 36 2.04 36 0 36 C0 24.12 0 12.24 0 0 Z " fill="#3F2C6C" transform="translate(68,142)"/>
<path d="M0 0 C1.9375 0.25 1.9375 0.25 4 1 C4.66 1.99 5.32 2.98 6 4 C6.33 3.34 6.66 2.68 7 2 C7.53625 2.309375 8.0725 2.61875 8.625 2.9375 C11.49767085 4.3427092 11.49767085 4.3427092 17 5 C17 17.21 17 29.42 17 42 C14.36 42.33 11.72 42.66 9 43 C7.4100567 44.92064793 7.4100567 44.92064793 7 47 C6.34 45.35 5.68 43.7 5 42 C5 42.99 5 43.98 5 45 C4.34 45 3.68 45 3 45 C3 44.34 3 43.68 3 43 C0.69 43 -1.62 43 -4 43 C-4 42.67 -4 42.34 -4 42 C-1.69 42 0.62 42 3 42 C3 30.12 3 18.24 3 6 C1.02 6 -0.96 6 -3 6 C-1.125 1.125 -1.125 1.125 0 0 Z " fill="#F3F0F7" transform="translate(87,136)"/>
<path d="M0 0 C2.64 0 5.28 0 8 0 C8.17015625 0.73863281 8.3403125 1.47726563 8.515625 2.23828125 C9.75507717 7.426839 11.08860413 12.4531677 13 17.4375 C15.29879389 23.48509623 16.67333964 29.67826237 18 36 C15.36 36 12.72 36 10 36 C9.67 33.36 9.34 30.72 9 28 C5.37 28 1.74 28 -2 28 C-2.33 30.64 -2.66 33.28 -3 36 C-5.31 36 -7.62 36 -10 36 C-8.63217409 28.34274158 -6.65212672 20.95210477 -4.4375 13.5 C-4.12103516 12.4171875 -3.80457031 11.334375 -3.47851562 10.21875 C-1.1437595 2.287519 -1.1437595 2.287519 0 0 Z " fill="#3D2B66" transform="translate(192,142)"/>
<path d="M0 0 C1.98 0 3.96 0 6 0 C6.33 3.96 6.66 7.92 7 12 C7.47308594 11.13375 7.94617188 10.2675 8.43359375 9.375 C13.77054227 0.38645513 13.77054227 0.38645513 17.53515625 -0.796875 C19.79873847 -0.75382748 21.80615928 -0.54846018 24 0 C22.60580561 4.46142206 20.14534646 7.45177554 17.14453125 10.9375 C15.80655695 12.93341323 15.80655695 12.93341323 16.0703125 15.23828125 C17.36692281 19.08997658 19.17907466 22.59305268 21.0625 26.1875 C25 33.74615385 25 33.74615385 25 36 C22.03 36 19.06 36 16 36 C15.34865075 34.43979133 14.70417036 32.87671421 14.0625 31.3125 C13.70285156 30.44238281 13.34320313 29.57226562 12.97265625 28.67578125 C12.0429688 26.11820735 11.45837375 23.6778677 11 21 C8.83250246 22.31974709 8.83250246 22.31974709 7 25 C6.3424775 28.65582511 6.12789352 32.29108788 6 36 C4.02 36 2.04 36 0 36 C0 24.12 0 12.24 0 0 Z " fill="#3F2C6B" transform="translate(10,142)"/>
<path d="M0 0 C8 8 8 8 8 11 C5.69 11 3.38 11 1 11 C1 26.51 1 42.02 1 58 C18.82 58 36.64 58 55 58 C55 50.74 55 43.48 55 36 C59 38 59 38 60 39 C60.08737645 40.85369611 60.10698153 42.71067541 60.09765625 44.56640625 C60.09515869 45.57904541 60.09266113 46.59168457 60.09008789 47.63500977 C60.08098389 48.93108154 60.07187988 50.22715332 60.0625 51.5625 C60.041875 55.666875 60.02125 59.77125 60 64 C46.14 64 32.28 64 18 64 C17.67 63.34 17.34 62.68 17 62 C16.01 62 15.02 62 14 62 C14 61.34 14 60.68 14 60 C8.06 60.495 8.06 60.495 2 61 C2 63.97 2 66.94 2 70 C1.34 70 0.68 70 0 70 C0 46.9 0 23.8 0 0 Z " fill="#39295A" transform="translate(114,35)"/>
<path d="M0 0 C6.93 0 13.86 0 21 0 C21 2.31 21 4.62 21 7 C16.05 7 11.1 7 6 7 C6 9.31 6 11.62 6 14 C10.29 14 14.58 14 19 14 C19 15.98 19 17.96 19 20 C14.71 20 10.42 20 6 20 C6 22.97 6 25.94 6 29 C11.28 29 16.56 29 22 29 C22 31.31 22 33.62 22 36 C14.74 36 7.48 36 0 36 C0 24.12 0 12.24 0 0 Z " fill="#3B2965" transform="translate(40,142)"/>
<path d="M0 0 C7.26 0 14.52 0 22 0 C22 0.33 22 0.66 22 1 C15.07 1 8.14 1 1 1 C1 12.88 1 24.76 1 37 C8.26 37 15.52 37 23 37 C23 34.69 23 32.38 23 30 C17.72 30 12.44 30 7 30 C7 27.03 7 24.06 7 21 C11.29 21 15.58 21 20 21 C20 19.02 20 17.04 20 15 C15.71 15 11.42 15 7 15 C7 12.69 7 10.38 7 8 C7.33 8 7.66 8 8 8 C8 9.98 8 11.96 8 14 C12.29 14 16.58 14 21 14 C21.33 15.98 21.66 17.96 22 20 C23.98491642 19.73323796 23.98491642 19.73323796 26 19 C27.18695553 15.43913342 27.35095418 12.02668976 27.5625 8.3125 C27.60568359 7.61060547 27.64886719 6.90871094 27.69335938 6.18554688 C27.7991736 4.45724794 27.90006581 2.7286489 28 1 C28.33 1 28.66 1 29 1 C29 12.88 29 24.76 29 37 C28.34 37 27.68 37 27 37 C27 37.66 27 38.32 27 39 C18.09 38.67 9.18 38.34 0 38 C0 25.46 0 12.92 0 0 Z " fill="#D5CEDF" transform="translate(39,141)"/>
<path d="M0 0 C1.32 0.33 2.64 0.66 4 1 C4 1.66 4 2.32 4 3 C9.28 3 14.56 3 20 3 C20 4.32 20 5.64 20 7 C20.66 6.34 21.32 5.68 22 5 C22 11.27 22 17.54 22 24 C18.71388481 22.3569424 17.84495679 18.83978355 16.375 15.625 C15.88773438 14.59632813 15.88773438 14.59632813 15.390625 13.546875 C13.99752642 10.53825033 13 8.35384431 13 5 C10.36 5 7.72 5 5 5 C5.05220703 6.50240234 5.05220703 6.50240234 5.10546875 8.03515625 C5.4216419 21.15469509 5.4216419 21.15469509 2 27 C1.67 26.01 1.34 25.02 1 24 C0.01 24.33 -0.98 24.66 -2 25 C-2 22.69 -2 20.38 -2 18 C-6.29 18 -10.58 18 -15 18 C-15 16.02 -15 14.04 -15 12 C-10.38 12 -5.76 12 -1 12 C-1 9.69 -1 7.38 -1 5 C-0.34 5 0.32 5 1 5 C0.67 3.35 0.34 1.7 0 0 Z " fill="#FBF8FC" transform="translate(62,137)"/>
<path d="M0 0 C0 2.64 0 5.28 0 8 C-16.17 8 -32.34 8 -49 8 C-48.67 6.35 -48.34 4.7 -48 3 C-48.33 2.34 -48.66 1.68 -49 1 C-42.18237607 0.85743973 -35.3647488 0.71503992 -28.54711914 0.57275391 C-26.2258293 0.52428867 -23.90454023 0.47578612 -21.58325195 0.42724609 C-18.25472207 0.35765021 -14.92618945 0.28818666 -11.59765625 0.21875 C-10.55287613 0.19687622 -9.50809601 0.17500244 -8.43165588 0.15246582 C-7.47073532 0.13244507 -6.50981476 0.11242432 -5.51977539 0.09179688 C-4.66928116 0.07403198 -3.81878693 0.05626709 -2.94252014 0.03796387 C-1.96178574 0.01879677 -0.98092168 0 0 0 Z " fill="#36235F" transform="translate(103,92)"/>
<path d="M0 0 C0.66 0 1.32 0 2 0 C6.15311422 5.42016602 5.21664672 10.42838297 5 17 C-1.93 17 -8.86 17 -16 17 C-16 22.61 -16 28.22 -16 34 C-17.98 34 -19.96 34 -22 34 C-22 26.41 -22 18.82 -22 11 C-14.74 11 -7.48 11 0 11 C0 7.37 0 3.74 0 0 Z " fill="#372852" transform="translate(149,48)"/>
<path d="M0 0 C4.29 0 8.58 0 13 0 C12.67 0.66 12.34 1.32 12 2 C8.7 2 5.4 2 2 2 C2 26.09 2 50.18 2 75 C1.01 75.495 1.01 75.495 0 76 C0 73.03 0 70.06 0 67 C-16.5 67 -33 67 -50 67 C-49.505 66.01 -49.505 66.01 -49 65 C-24.25 65.495 -24.25 65.495 1 66 C0.505 62.04 0.505 62.04 0 58 C-0.07558266 56.32158725 -0.11829842 54.64104444 -0.11352539 52.9609375 C-0.11344986 52.06060791 -0.11337433 51.16027832 -0.11329651 50.23266602 C-0.10813522 49.28963623 -0.10297394 48.34660645 -0.09765625 47.375 C-0.0962413 46.38749756 -0.09482635 45.39999512 -0.09336853 44.38256836 C-0.08780927 41.25501364 -0.07526446 38.12753277 -0.0625 35 C-0.05747973 32.86849062 -0.05291775 30.73698012 -0.04882812 28.60546875 C-0.03870775 23.40359508 -0.01912456 18.20187938 0 13 C-10.56 13 -21.12 13 -32 13 C-32 16.63 -32 20.26 -32 24 C-32.66 24.33 -33.32 24.66 -34 25 C-34 20.71 -34 16.42 -34 12 C-22.78 12 -11.56 12 0 12 C0 8.04 0 4.08 0 0 Z " fill="#9E99A3" transform="translate(102,34)"/>
<path d="M0 0 C1.88428711 0.07831055 1.88428711 0.07831055 3.80664062 0.15820312 C6.89221701 0.28725765 9.97741805 0.4221967 13.0625 0.5625 C14.98274768 4.40299536 13.49399256 9.43934882 13.0625 13.5625 C5.8025 13.5625 -1.4575 13.5625 -8.9375 13.5625 C-8.9375 21.1525 -8.9375 28.7425 -8.9375 36.5625 C-6.9575 36.5625 -4.9775 36.5625 -2.9375 36.5625 C-2.9375 30.9525 -2.9375 25.3425 -2.9375 19.5625 C-2.6075 19.5625 -2.2775 19.5625 -1.9375 19.5625 C-1.9375 24.8425 -1.9375 30.1225 -1.9375 35.5625 C4.9925 35.5625 11.9225 35.5625 19.0625 35.5625 C19.0625 31.6025 19.0625 27.6425 19.0625 23.5625 C25.4975 23.0675 25.4975 23.0675 32.0625 22.5625 C32.0625 21.9025 32.0625 21.2425 32.0625 20.5625 C32.7225 20.5625 33.3825 20.5625 34.0625 20.5625 C34.3925 19.9025 34.7225 19.2425 35.0625 18.5625 C35.5575 21.0375 35.5575 21.0375 36.0625 23.5625 C36.7225 23.5625 37.3825 23.5625 38.0625 23.5625 C39.16161549 26.85984646 39.1764456 29.29208745 39.16015625 32.76171875 C39.15693359 33.97021484 39.15371094 35.17871094 39.15039062 36.42382812 C39.13782227 38.3177832 39.13782227 38.3177832 39.125 40.25 C39.12048828 41.52423828 39.11597656 42.79847656 39.11132812 44.11132812 C39.09952873 47.26176564 39.08306597 50.41210949 39.0625 53.5625 C38.7325 53.5625 38.4025 53.5625 38.0625 53.5625 C38.032771 52.44222412 38.032771 52.44222412 38.00244141 51.29931641 C37.90741789 47.92834395 37.79764741 44.55801071 37.6875 41.1875 C37.6565625 40.011875 37.625625 38.83625 37.59375 37.625 C37.53574219 35.94277344 37.53574219 35.94277344 37.4765625 34.2265625 C37.4451416 33.18967285 37.4137207 32.1527832 37.38134766 31.08447266 C37.30295528 28.39440165 37.30295528 28.39440165 35.0625 26.5625 C32.69740639 26.26190057 30.31808119 26.06734988 27.9375 25.9375 C26.65617187 25.86273438 25.37484375 25.78796875 24.0546875 25.7109375 C22.57355469 25.63746094 22.57355469 25.63746094 21.0625 25.5625 C21.07410156 26.34496094 21.08570313 27.12742187 21.09765625 27.93359375 C21.10667969 28.94550781 21.11570313 29.95742187 21.125 31 C21.13660156 32.00933594 21.14820313 33.01867187 21.16015625 34.05859375 C21.0625 36.5625 21.0625 36.5625 20.0625 37.5625 C17.84394736 37.65033542 15.62261504 37.66944609 13.40234375 37.66015625 C12.40564415 37.65803383 12.40564415 37.65803383 11.3888092 37.65586853 C9.25916101 37.65025518 7.12961661 37.63770054 5 37.625 C3.55924631 37.61998671 2.11849097 37.61542351 0.67773438 37.61132812 C-2.86074958 37.60113076 -6.39900813 37.5815583 -9.9375 37.5625 C-9.9375 29.3125 -9.9375 21.0625 -9.9375 12.5625 C-2.6775 12.5625 4.5825 12.5625 12.0625 12.5625 C12.0625 8.9325 12.0625 5.3025 12.0625 1.5625 C1.1725 1.5625 -9.7175 1.5625 -20.9375 1.5625 C-20.9375 1.2325 -20.9375 0.9025 -20.9375 0.5625 C-13.95924057 -0.83729944 -7.0753013 -0.32278511 0 0 Z " fill="#A29EA9" transform="translate(135.9375,45.4375)"/>
<path d="M0 0 C2.31 0 4.62 0 7 0 C7 11.88 7 23.76 7 36 C4.36 36 1.72 36 -1 36 C-2.46726798 32.18510326 -1.43336419 29.70988378 0 26 C-0.99 25.34 -1.98 24.68 -3 24 C-2.67 22.68 -2.34 21.36 -2 20 C-1.67 20.99 -1.34 21.98 -1 23 C-0.34 23 0.32 23 1 23 C1 22.01 1 21.02 1 20 C0.34 19.67 -0.32 19.34 -1 19 C-0.67 12.73 -0.34 6.46 0 0 Z " fill="#51446A" transform="translate(127,142)"/>
<path d="M0 0 C2.31 0 4.62 0 7 0 C7 11.88 7 23.76 7 36 C4.69 36 2.38 36 0 36 C0 24.12 0 12.24 0 0 Z " fill="#4A3E66" transform="translate(171,142)"/>
<path d="M0 0 C1.98 0 3.96 0 6 0 C6 11.88 6 23.76 6 36 C4.02 36 2.04 36 0 36 C0 24.12 0 12.24 0 0 Z " fill="#342351" transform="translate(98,142)"/>
<path d="M0 0 C0.7425 0.33 1.485 0.66 2.25 1 C5.13883312 2.22782871 5.13883312 2.22782871 9 2 C11.65338341 4.65338341 12.01040225 7.01451446 13 10.625 C13.34546875 11.87796875 13.6909375 13.1309375 14.046875 14.421875 C15.07268149 18.27285344 16.06996268 22.1248445 17 26 C14.36 26 11.72 26 9 26 C8.67 22.7 8.34 19.4 8 16 C7.34 16 6.68 16 6 16 C5.67 14.68 5.34 13.36 5 12 C3.35 11.67 1.7 11.34 0 11 C0 9.35 0 7.7 0 6 C-0.33 6 -0.66 6 -1 6 C-1.042721 4.33388095 -1.04063832 2.66617115 -1 1 C-0.67 0.67 -0.34 0.34 0 0 Z " fill="#412C70" transform="translate(193,152)"/>
<path d="M0 0 C7 0 7 0 8.91796875 1.62890625 C10.25810409 4.56559272 10.36533268 6.71470649 10.3125 9.9375 C10.30863281 10.95714844 10.30476562 11.97679687 10.30078125 13.02734375 C9.99305515 16.06863672 9.37755807 18.27895772 8 21 C6 22 6 22 0 22 C0 14.74 0 7.48 0 0 Z " fill="#FCFBF7" transform="translate(148,149)"/>
<path d="M0 0 C1.98 0 3.96 0 6 0 C6 11.55 6 23.1 6 35 C5.01 35 4.02 35 3 35 C3.33 30.71 3.66 26.42 4 22 C3.34 22 2.68 22 2 22 C0.33325679 19.08175756 -0.2432008 17.02405621 -0.1953125 13.671875 C-0.18886719 12.87265625 -0.18242188 12.0734375 -0.17578125 11.25 C-0.15902344 10.425 -0.14226562 9.6 -0.125 8.75 C-0.11597656 7.90953125 -0.10695313 7.0690625 -0.09765625 6.203125 C-0.07415817 4.13529396 -0.03828908 2.06761005 0 0 Z " fill="#2F1F52" transform="translate(84,142)"/>
<path d="M0 0 C1.32 0.66 2.64 1.32 4 2 C4 10.25 4 18.5 4 27 C-9.86 27 -23.72 27 -38 27 C-37.67 26.34 -37.34 25.68 -37 25 C-25.45 25 -13.9 25 -2 25 C-1.505 23.515 -1.505 23.515 -1 22 C-0.505 23.98 -0.505 23.98 0 26 C0.99 26 1.98 26 3 26 C2.505 18.575 2.505 18.575 2 11 C2 13.64 2 16.28 2 19 C1.01 19.495 1.01 19.495 0 20 C0 13.4 0 6.8 0 0 Z " fill="#342453" transform="translate(170,72)"/>
<path d="M0 0 C7.26 0 14.52 0 22 0 C22 2.31 22 4.62 22 7 C19.08178537 7.13510253 16.16982348 7.2341305 13.25 7.3125 C12.425 7.35439453 11.6 7.39628906 10.75 7.43945312 C4.60650439 7.56331392 4.60650439 7.56331392 1.421875 4.60546875 C0 2 0 2 0 0 Z " fill="#372755" transform="translate(69,58)"/>
<path d="M0 0 C1.98 0 3.96 0 6 0 C5.29423828 0.53560547 5.29423828 0.53560547 4.57421875 1.08203125 C2.34254112 3.8010231 2.25758181 6.22955674 1.8125 9.6875 C1.65394531 10.86699219 1.49539062 12.04648438 1.33203125 13.26171875 C1.22246094 14.16535156 1.11289063 15.06898438 1 16 C1.66 16 2.32 16 3 16 C2.67 17.98 2.34 19.96 2 22 C2.66 22 3.32 22 4 22 C4 20.35 4 18.7 4 17 C4.66 17 5.32 17 6 17 C6 23.27 6 29.54 6 36 C4.02 36 2.04 36 0 36 C0 24.12 0 12.24 0 0 Z " fill="#372657" transform="translate(111,142)"/>
<path d="M0 0 C1.98 0 3.96 0 6 0 C5.01 0.495 5.01 0.495 4 1 C4 1.66 4 2.32 4 3 C4.99 3.33 5.98 3.66 7 4 C6.34 4 5.68 4 5 4 C5 4.68102783 5 5.36205566 5 6.0637207 C5 14.70914714 5 23.35457357 5 32 C3.35 32 1.7 32 0 32 C0 21.44 0 10.88 0 0 Z " fill="#4C3676" transform="translate(143,144)"/>
<path d="M0 0 C0.433125 0.495 0.86625 0.99 1.3125 1.5 C2.99740483 3.33218192 2.99740483 3.33218192 6 3 C6.33 3.66 6.66 4.32 7 5 C9.52733235 5.65555119 9.52733235 5.65555119 12 6 C11.67 6.66 11.34 7.32 11 8 C12.32 8.66 13.64 9.32 15 10 C11.37 10 7.74 10 4 10 C3.67 12.64 3.34 15.28 3 18 C0.69 18 -1.62 18 -4 18 C-2.83445193 11.9490696 -1.54656904 5.96533774 0 0 Z " fill="#47336F" transform="translate(186,160)"/>
<path d="M0 0 C1.98 0 3.96 0 6 0 C6 3.3 6 6.6 6 10 C5.67 10 5.34 10 5 10 C4.67 7.36 4.34 4.72 4 2 C3.01 1.67 2.02 1.34 1 1 C1 8.59 1 16.18 1 24 C1.99 24 2.98 24 4 24 C4 23.01 4 22.02 4 21 C5.32 21.33 6.64 21.66 8 22 C7.67 22.99 7.34 23.98 7 25 C6.77820215 26.89212737 6.59385985 28.78884472 6.4375 30.6875 C6.35371094 31.68136719 6.26992188 32.67523438 6.18359375 33.69921875 C6.12300781 34.45847656 6.06242187 35.21773437 6 36 C4.02 36 2.04 36 0 36 C0 24.12 0 12.24 0 0 Z " fill="#372759" transform="translate(10,142)"/>
<path d="M0 0 C1.98 0 3.96 0 6 0 C5.67 0.66 5.34 1.32 5 2 C2.69509687 8.41326099 2.56785626 14.66744185 2.375 21.4375 C2.33632812 22.55060547 2.29765625 23.66371094 2.2578125 24.81054688 C2.16409034 27.54020476 2.07837706 30.26986563 2 33 C2.66 33 3.32 33 4 33 C4.33 28.38 4.66 23.76 5 19 C5.33 19 5.66 19 6 19 C6 24.61 6 30.22 6 36 C4.02 36 2.04 36 0 36 C0 24.12 0 12.24 0 0 Z " fill="#443468" transform="translate(68,142)"/>
<path d="M0 0 C0 1.32 0 2.64 0 4 C0.66 3.34 1.32 2.68 2 2 C2 8.27 2 14.54 2 21 C-1.28611519 19.3569424 -2.15504321 15.83978355 -3.625 12.625 C-3.94984375 11.93921875 -4.2746875 11.2534375 -4.609375 10.546875 C-6.00247358 7.53825033 -7 5.35384431 -7 2 C-9.31 2 -11.62 2 -14 2 C-14 1.67 -14 1.34 -14 1 C-9.32798795 -0.20568053 -4.78503708 -0.09382426 0 0 Z " fill="#ECE7F3" transform="translate(82,140)"/>
<path d="M0 0 C1.74271938 2.297221 3.39911152 4.59866729 5 7 C5.66 6.67 6.32 6.34 7 6 C7 7.65 7 9.3 7 11 C7.66 11 8.32 11 9 11 C9.02696365 12.79158489 9.04637917 14.58328473 9.0625 16.375 C9.07410156 17.37273437 9.08570312 18.37046875 9.09765625 19.3984375 C9 22 9 22 8 24 C8.99 24.33 9.98 24.66 11 25 C8.69 25 6.38 25 4 25 C2.52675552 21.18689665 1.69816946 18.90549162 3 15 C3 13.68 3 12.36 3 11 C3.66 11 4.32 11 5 11 C5 10.34 5 9.68 5 9 C3.68 8.34 2.36 7.68 1 7 C1 5.68 1 4.36 1 3 C0.34 2.67 -0.32 2.34 -1 2 C-0.67 1.34 -0.34 0.68 0 0 Z " fill="#3F2672" transform="translate(79,153)"/>
<path d="M0 0 C0.33 0 0.66 0 1 0 C1.33 5.94 1.66 11.88 2 18 C2.66 17.34 3.32 16.68 4 16 C5.53266582 19.06533164 5.10276471 22.26754272 5.0625 25.625 C5.05798828 26.33140625 5.05347656 27.0378125 5.04882812 27.765625 C5.03703875 29.51045275 5.01910324 31.255237 5 33 C3.1875 33.625 3.1875 33.625 1 34 C0.01 33.34 -0.98 32.68 -2 32 C-1.34 30.02 -0.68 28.04 0 26 C-0.99 25.34 -1.98 24.68 -3 24 C-2.67 22.68 -2.34 21.36 -2 20 C-1.67 20.99 -1.34 21.98 -1 23 C-0.34 23 0.32 23 1 23 C1 22.01 1 21.02 1 20 C0.34 19.67 -0.32 19.34 -1 19 C-0.67 12.73 -0.34 6.46 0 0 Z " fill="#503978" transform="translate(127,142)"/>
<path d="M0 0 C0.33 0 0.66 0 1 0 C1 3.96 1 7.92 1 12 C-6.59 12.33 -14.18 12.66 -22 13 C-22 17.29 -22 21.58 -22 26 C-22.99 26 -23.98 26 -25 26 C-25 20.39 -25 14.78 -25 9 C-19.72 9 -14.44 9 -9 9 C-9 9.33 -9 9.66 -9 10 C-6.03 10.33 -3.06 10.66 0 11 C0 7.37 0 3.74 0 0 Z " fill="#534076" transform="translate(153,53)"/>
<path d="M0 0 C3.96 0 7.92 0 12 0 C12.33 1.65 12.66 3.3 13 5 C12.01 5.495 12.01 5.495 11 6 C11.99 6.66 12.98 7.32 14 8 C11.85423363 8.02685938 9.70837355 8.04633088 7.5625 8.0625 C6.36753906 8.07410156 5.17257813 8.08570313 3.94140625 8.09765625 C1 8 1 8 0 7 C-0.04092937 4.66702567 -0.04241723 2.33294775 0 0 Z " fill="#F7F4F7" transform="translate(47,163)"/>
<path d="M0 0 C2.64 0 5.28 0 8 0 C10.29612756 9.41002278 10.29612756 9.41002278 10 14 C9.67 13.01 9.34 12.02 9 11 C7.02 11.99 7.02 11.99 5 13 C5 12.34 5 11.68 5 11 C4.01 11 3.02 11 2 11 C1.67 9.68 1.34 8.36 1 7 C0.01 7 -0.98 7 -2 7 C-1.34 4.69 -0.68 2.38 0 0 Z " fill="#3F2E69" transform="translate(192,142)"/>
<path d="M0 0 C8 8 8 8 8 11 C5.69 11 3.38 11 1 11 C1 26.51 1 42.02 1 58 C0.67 58 0.34 58 0 58 C0 38.86 0 19.72 0 0 Z " fill="#443F50" transform="translate(114,35)"/>
<path d="M0 0 C0.99 0 1.98 0 3 0 C3 10.56 3 21.12 3 32 C2.01 32 1.02 32 0 32 C0 21.44 0 10.88 0 0 Z " fill="#3F2A6D" transform="translate(173,144)"/>
<path d="M0 0 C4.29 0.33 8.58 0.66 13 1 C12.67 2.65 12.34 4.3 12 6 C11.34 5.67 10.68 5.34 10 5 C10.66 4.01 11.32 3.02 12 2 C9.03 2 6.06 2 3 2 C2.79375 2.66 2.5875 3.32 2.375 4 C0.49903535 8.09301378 -2.08488226 11.57494912 -5 15 C-5.33 15 -5.66 15 -6 15 C-6 10.71 -6 6.42 -6 2 C-7.98 2 -9.96 2 -12 2 C-12 1.67 -12 1.34 -12 1 C-10.56260487 0.97287934 -9.12506137 0.95354933 -7.6875 0.9375 C-6.48673828 0.92009766 -6.48673828 0.92009766 -5.26171875 0.90234375 C-3 1 -3 1 0 2 C0 1.34 0 0.68 0 0 Z " fill="#E7E3ED" transform="translate(22,140)"/>
<path d="M0 0 C1.93166016 0.01740234 1.93166016 0.01740234 3.90234375 0.03515625 C5.19269531 0.04417969 6.48304687 0.05320313 7.8125 0.0625 C8.81152344 0.07410156 9.81054688 0.08570313 10.83984375 0.09765625 C10.83984375 2.40765625 10.83984375 4.71765625 10.83984375 7.09765625 C3.57984375 7.09765625 -3.68015625 7.09765625 -11.16015625 7.09765625 C-11.16015625 6.76765625 -11.16015625 6.43765625 -11.16015625 6.09765625 C-4.23015625 6.09765625 2.69984375 6.09765625 9.83984375 6.09765625 C9.83984375 5.43765625 9.83984375 4.77765625 9.83984375 4.09765625 C8.84984375 4.59265625 8.84984375 4.59265625 7.83984375 5.09765625 C5.63255145 5.16858467 3.42316923 5.1818065 1.21484375 5.16015625 C0.02632812 5.15113281 -1.1621875 5.14210937 -2.38671875 5.1328125 C-3.30195312 5.12121094 -4.2171875 5.10960937 -5.16015625 5.09765625 C-4.50015625 4.76765625 -3.84015625 4.43765625 -3.16015625 4.09765625 C-3.49015625 3.10765625 -3.82015625 2.11765625 -4.16015625 1.09765625 C-3.16015625 0.09765625 -3.16015625 0.09765625 0 0 Z " fill="#55466D" transform="translate(51.16015625,170.90234375)"/>
<path d="M0 0 C0.66 0 1.32 0 2 0 C2.86846831 1.74294678 3.71930627 3.49468663 4.5625 5.25 C5.27599609 6.71179688 5.27599609 6.71179688 6.00390625 8.203125 C7.03510273 11.09856297 7.11346788 12.19966161 6 15 C6 14.34 6 13.68 6 13 C3.03 12.505 3.03 12.505 0 12 C-0.33 12.99 -0.66 13.98 -1 15 C-1.66 15 -2.32 15 -3 15 C-3.08142927 13.2507786 -3.13938541 11.50045458 -3.1875 9.75 C-3.22230469 8.77546875 -3.25710938 7.8009375 -3.29296875 6.796875 C-2.95840784 3.60293349 -2.23334367 2.27119696 0 0 Z " fill="#EEE6F1" transform="translate(19,163)"/>
<path d="M0 0 C1.39991896 0.12788819 2.79873374 0.28215431 4.1875 0.5 C2.59706621 5.58938811 -0.5571951 9.37456643 -3.8125 13.5 C-4.1425 12.18 -4.4725 10.86 -4.8125 9.5 C-7.67974686 10.07344937 -8.6739515 10.3614515 -10.8125 12.5 C-9.4383749 6.14467141 -7.28436949 -0.04588579 0 0 Z " fill="#402F64" transform="translate(29.8125,141.5)"/>
<path d="M0 0 C3.63 0 7.26 0 11 0 C11 0.33 11 0.66 11 1 C9.35 1 7.7 1 6 1 C6 1.99 6 2.98 6 4 C6.66 4 7.32 4 8 4 C8 3.34 8 2.68 8 2 C10 2 10 2 11.625 3.5 C12.07875 3.995 12.5325 4.49 13 5 C13.33 4.01 13.66 3.02 14 2 C14.99 2.99 15.98 3.98 17 5 C16.34 5.66 15.68 6.32 15 7 C14.34 6.67 13.68 6.34 13 6 C13.33 6.99 13.66 7.98 14 9 C13.01 10.485 13.01 10.485 12 12 C10.0625 11.1875 10.0625 11.1875 8 10 C7.67 9.01 7.34 8.02 7 7 C6.38125 6.71125 5.7625 6.4225 5.125 6.125 C2.32079102 4.64041877 1.45276712 2.76025753 0 0 Z " fill="#46306C" transform="translate(103,109)"/>
<path d="M0 0 C0.66 0 1.32 0 2 0 C5.08381031 5.00208602 4.12391488 10.29991548 4 16 C-1.61 16 -7.22 16 -13 16 C-13 15.67 -13 15.34 -13 15 C-12.08476562 14.93941406 -11.16953125 14.87882812 -10.2265625 14.81640625 C-8.44378906 14.69072266 -8.44378906 14.69072266 -6.625 14.5625 C-4.84996094 14.44068359 -4.84996094 14.44068359 -3.0390625 14.31640625 C-0.08481099 14.18915064 -0.08481099 14.18915064 2 13 C0.97347702 11.74008782 0.97347702 11.74008782 -1.22485352 11.97827148 C-2.18319092 12.02540283 -3.14152832 12.07253418 -4.12890625 12.12109375 C-5.16337891 12.16943359 -6.19785156 12.21777344 -7.26367188 12.26757812 C-8.35228516 12.32365234 -9.44089844 12.37972656 -10.5625 12.4375 C-11.65498047 12.48970703 -12.74746094 12.54191406 -13.87304688 12.59570312 C-16.58229076 12.72584148 -19.29120794 12.86082054 -22 13 C-22 12.34 -22 11.68 -22 11 C-14.74 11 -7.48 11 0 11 C0 7.37 0 3.74 0 0 Z " fill="#2C1E4A" transform="translate(149,48)"/>
<path d="M0 0 C0.33 1.32 0.66 2.64 1 4 C0.01 3.67 -0.98 3.34 -2 3 C-3.04214691 7.61507774 -3.04214691 7.61507774 -2 12 C-1.38125 11.649375 -0.7625 11.29875 -0.125 10.9375 C0.926875 10.4734375 0.926875 10.4734375 2 10 C2.66 10.33 3.32 10.66 4 11 C4.625 13.5625 4.625 13.5625 5 16 C0.25 17 0.25 17 -2 17 C-2 18.65 -2 20.3 -2 22 C-2.66 22 -3.32 22 -4 22 C-3.67 20.02 -3.34 18.04 -3 16 C-3.66 16 -4.32 16 -5 16 C-5.56364659 5.24896324 -5.56364659 5.24896324 -2 1 C-1.34 0.67 -0.68 0.34 0 0 Z " fill="#3E2A6E" transform="translate(117,142)"/>
<path d="M0 0 C0.7425 0.33 1.485 0.66 2.25 1 C5.13883312 2.22782871 5.13883312 2.22782871 9 2 C9.66 3.32 10.32 4.64 11 6 C10.38125 6.268125 9.7625 6.53625 9.125 6.8125 C6.7004767 7.95556848 6.7004767 7.95556848 5 11 C2.375 11.1875 2.375 11.1875 0 11 C0 9.35 0 7.7 0 6 C-0.33 6 -0.66 6 -1 6 C-1.042721 4.33388095 -1.04063832 2.66617115 -1 1 C-0.67 0.67 -0.34 0.34 0 0 Z " fill="#473670" transform="translate(193,152)"/>
<path d="M0 0 C7 0 7 0 8.92578125 1.609375 C10.29227062 4.65043497 10.29584676 6.92736615 10.1875 10.25 C10.16042969 11.32765625 10.13335937 12.4053125 10.10546875 13.515625 C10.07066406 14.33546875 10.03585938 15.1553125 10 16 C9.67 16 9.34 16 9 16 C8.67 12.37 8.34 8.74 8 5 C7.34 5 6.68 5 6 5 C6 4.34 6 3.68 6 3 C4.35 3 2.7 3 1 3 C1 8.94 1 14.88 1 21 C2.32 21 3.64 21 5 21 C5.33 20.01 5.66 19.02 6 18 C6.99 17.67 7.98 17.34 9 17 C8.625 18.9375 8.625 18.9375 8 21 C6 22 6 22 0 22 C0 14.74 0 7.48 0 0 Z " fill="#EFE5F7" transform="translate(148,149)"/>
<path d="M0 0 C0 8.58 0 17.16 0 26 C-10.546875 26.48828125 -10.546875 26.48828125 -14 26 C-16.453125 23.48046875 -16.453125 23.48046875 -18 21 C-17.34 20.67 -16.68 20.34 -16 20 C-15.62230469 20.65484375 -15.24460937 21.3096875 -14.85546875 21.984375 C-13.14403694 24.26903428 -13.14403694 24.26903428 -10.30078125 24.390625 C-9.31464844 24.34421875 -8.32851562 24.2978125 -7.3125 24.25 C-4.6828125 24.12625 -4.6828125 24.12625 -2 24 C-2 17.4 -2 10.8 -2 4 C-2.66 4 -3.32 4 -4 4 C-4 3.01 -4 2.02 -4 1 C-2 0 -2 0 0 0 Z " fill="#362950" transform="translate(133,100)"/>
<path d="M0 0 C0.33 0 0.66 0 1 0 C1.83360594 10.36053092 2.12288464 20.6094206 2 31 C1.01 30.67 0.02 30.34 -1 30 C-1.02925502 26.31251691 -1.04688418 22.62506408 -1.0625 18.9375 C-1.07087891 17.89916016 -1.07925781 16.86082031 -1.08789062 15.79101562 C-1.10496442 10.41276931 -0.95415152 5.29666789 0 0 Z " fill="#402A6D" transform="translate(101,145)"/>
<path d="M0 0 C0.66 0 1.32 0 2 0 C3.6875 1.6875 3.6875 1.6875 5 4 C4.6875 6.75 4.6875 6.75 4 9 C6.31 9 8.62 9 11 9 C11.33 7.68 11.66 6.36 12 5 C12.66 6.65 13.32 8.3 14 10 C10.89936477 11.03354508 8.68555932 11.13364996 5.4375 11.125 C4.46683594 11.12757813 3.49617187 11.13015625 2.49609375 11.1328125 C0 11 0 11 -2 10 C-2.33 10.66 -2.66 11.32 -3 12 C-3 11.34 -3 10.68 -3 10 C-4.32 9.67 -5.64 9.34 -7 9 C-4.69 9 -2.38 9 0 9 C0 6.03 0 3.06 0 0 Z " fill="#ECE9F2" transform="translate(178,169)"/>
<path d="M0 0 C3.41876639 1.7093832 4.201802 5.67517306 5.625 9.0625 C5.94984375 9.82111328 6.2746875 10.57972656 6.609375 11.36132812 C7.41213846 13.23837799 8.20683143 15.1188756 9 17 C7.02 17.99 7.02 17.99 5 19 C4.34 18.01 3.68 17.02 3 16 C3.66 16 4.32 16 5 16 C5 15.34 5 14.68 5 14 C4.34 14 3.68 14 3 14 C2.67 12.02 2.34 10.04 2 8 C1.67 11.63 1.34 15.26 1 19 C0.67 19 0.34 19 0 19 C0 12.73 0 6.46 0 0 Z " fill="#E1DAEA" transform="translate(74,159)"/>
<path d="M0 0 C2.37599719 3.56399578 3.15731805 7.08381174 4.125 11.1875 C4.39763672 12.31188477 4.39763672 12.31188477 4.67578125 13.45898438 C5.12251686 15.30470781 5.5619694 17.15219132 6 19 C3.36 19 0.72 19 -2 19 C-2 17.35 -2 15.7 -2 14 C-1.01 14 -0.02 14 1 14 C0.83628906 13.44828125 0.67257813 12.8965625 0.50390625 12.328125 C-0.05760414 9.73385993 -0.09739008 7.40164589 -0.0625 4.75 C-0.05347656 3.85796875 -0.04445312 2.9659375 -0.03515625 2.046875 C-0.02355469 1.37140625 -0.01195312 0.6959375 0 0 Z " fill="#473F62" transform="translate(204,159)"/>
<path d="M0 0 C0.66 0.33 1.32 0.66 2 1 C2 4.63 2 8.26 2 12 C2.66 11.67 3.32 11.34 4 11 C4 16.28 4 21.56 4 27 C3.01 27 2.02 27 1 27 C-0.68584312 23.34925782 -1.2107461 20.70375834 -0.9765625 16.69921875 C-0.925 15.72275391 -0.8734375 14.74628906 -0.8203125 13.74023438 C-0.75585938 12.73283203 -0.69140625 11.72542969 -0.625 10.6875 C-0.56828125 9.66076172 -0.5115625 8.63402344 -0.453125 7.57617188 C-0.31213091 5.05002774 -0.16076818 2.52494999 0 0 Z " fill="#4D3D71" transform="translate(169,71)"/>
<path d="M0 0 C0.99 0.33 1.98 0.66 3 1 C4 6.75 4 6.75 4 9 C4.639375 9.12375 5.27875 9.2475 5.9375 9.375 C6.618125 9.58125 7.29875 9.7875 8 10 C9.26237731 12.52475462 9.09856404 14.31200466 9.0625 17.125 C9.05347656 18.03507812 9.04445313 18.94515625 9.03515625 19.8828125 C9.02355469 20.58148438 9.01195313 21.28015625 9 22 C6.3002288 19.3002288 4.97553978 16.10003298 3.375 12.6875 C3.05015625 12.02298828 2.7253125 11.35847656 2.390625 10.67382812 C0.65197353 6.98102007 -0.42817366 4.09936635 0 0 Z " fill="#F5EFF9" transform="translate(118,139)"/>
<path d="M0 0 C0.66 0 1.32 0 2 0 C3.28406399 1.95224208 4.47941678 3.96340762 5.625 6 C6.25664063 7.11375 6.88828125 8.2275 7.5390625 9.375 C8.26222656 10.674375 8.26222656 10.674375 9 12 C6.03 12 3.06 12 0 12 C0 8.04 0 4.08 0 0 Z " fill="#44355E" transform="translate(61,70)"/>
<path d="M0 0 C0 0.99 0 1.98 0 3 C0.66 3 1.32 3 2 3 C2 3.99 2 4.98 2 6 C1.34 6 0.68 6 0 6 C-0.33 5.67 -0.66 5.34 -1 5 C0.06201737 7.22739701 0.06201737 7.22739701 2 10 C1.125 12.6875 1.125 12.6875 0 15 C-6.13027744 7.41013269 -6.13027744 7.41013269 -5.875 2.6875 C-4.54758957 0.12749417 -2.73831912 0 0 0 Z " fill="#3C2962" transform="translate(126,159)"/>
<path d="M0 0 C2.74172892 2.74172892 4.04915895 4.66582038 5.75 8.0625 C6.19859375 8.94035156 6.6471875 9.81820312 7.109375 10.72265625 C7.40328125 11.47417969 7.6971875 12.22570312 8 13 C7.67 13.66 7.34 14.32 7 15 C5.02 13.35 3.04 11.7 1 10 C1 12.97 1 15.94 1 19 C0.67 19 0.34 19 0 19 C0 12.73 0 6.46 0 0 Z " fill="#D6CBE2" transform="translate(117,159)"/>
<path d="M0 0 C5.61 0 11.22 0 17 0 C16.67 0.99 16.34 1.98 16 3 C15.02417969 3.06058594 14.04835938 3.12117187 13.04296875 3.18359375 C11.13451172 3.30927734 11.13451172 3.30927734 9.1875 3.4375 C7.92292969 3.51871094 6.65835938 3.59992188 5.35546875 3.68359375 C2.00818107 3.87184547 2.00818107 3.87184547 -1 5 C-1.33 4.01 -1.66 3.02 -2 2 C-1.34 2 -0.68 2 0 2 C0 1.34 0 0.68 0 0 Z " fill="#3E2972" transform="translate(42,144)"/>
<path d="M0 0 C1.32 0.33 2.64 0.66 4 1 C3.79375 1.598125 3.5875 2.19625 3.375 2.8125 C2.69328085 5.28450846 2.69328085 5.28450846 5 8 C2.39819158 10.60180842 0.60258085 10.5676903 -3 11 C-4.32 11 -5.64 11 -7 11 C-7 10.34 -7 9.68 -7 9 C-5.35 8.34 -3.7 7.68 -2 7 C-2.33 6.34 -2.66 5.68 -3 5 C-2.34 5 -1.68 5 -1 5 C-0.67 3.35 -0.34 1.7 0 0 Z " fill="#473270" transform="translate(157,165)"/>
<path d="M0 0 C0.66 0.33 1.32 0.66 2 1 C2 2.32 2 3.64 2 5 C2.66 5 3.32 5 4 5 C5.09911549 8.29734646 5.1139456 10.72958745 5.09765625 14.19921875 C5.09443359 15.40771484 5.09121094 16.61621094 5.08789062 17.86132812 C5.07951172 19.12396484 5.07113281 20.38660156 5.0625 21.6875 C5.05798828 22.96173828 5.05347656 24.23597656 5.04882812 25.54882812 C5.03702873 28.69926564 5.02056597 31.84960949 5 35 C4.67 35 4.34 35 4 35 C3.98541748 34.25838623 3.97083496 33.51677246 3.95581055 32.75268555 C3.88140543 29.39709369 3.78471994 26.04250506 3.6875 22.6875 C3.66494141 21.52025391 3.64238281 20.35300781 3.61914062 19.15039062 C3.58369141 18.03212891 3.54824219 16.91386719 3.51171875 15.76171875 C3.48553467 14.73006592 3.45935059 13.69841309 3.43237305 12.63549805 C2.94272786 9.6509019 2.22905886 8.92063096 0 7 C0 6.34 0 5.68 0 5 C-0.66 4.67 -1.32 4.34 -2 4 C-2 3.34 -2 2.68 -2 2 C-1.34 2 -0.68 2 0 2 C0 1.34 0 0.68 0 0 Z " fill="#D5CDDA" transform="translate(170,64)"/>
<path d="M0 0 C2 3.875 2 3.875 2 5 C-6.25 4.67 -14.5 4.34 -23 4 C-22.67 3.34 -22.34 2.68 -22 2 C-14.74 2 -7.48 2 0 2 C0 1.34 0 0.68 0 0 Z " fill="#3F2C67" transform="translate(150,58)"/>
<path d="M0 0 C0.99 0.99 1.98 1.98 3 3 C3.66 2.67 4.32 2.34 5 2 C4.67 4.97 4.34 7.94 4 11 C1.69 11 -0.62 11 -3 11 C-2.69217504 9.35328588 -2.37860766 7.70764424 -2.0625 6.0625 C-1.88847656 5.14597656 -1.71445313 4.22945312 -1.53515625 3.28515625 C-1 1 -1 1 0 0 Z " fill="#433561" transform="translate(185,167)"/>
<path d="M0 0 C5.94 0 11.88 0 18 0 C18 0.66 18 1.32 18 2 C14.81175432 3.59412284 11.37103338 3.10174735 7.875 3.0625 C7.12089844 3.05798828 6.36679688 3.05347656 5.58984375 3.04882812 C3.72652873 3.03703499 1.86325445 3.01909942 0 3 C0 2.01 0 1.02 0 0 Z " fill="#402B6F" transform="translate(72,61)"/>
<path d="M0 0 C1.98 0 3.96 0 6 0 C5.67 0.66 5.34 1.32 5 2 C4.01 2 3.02 2 2 2 C1.67 12.56 1.34 23.12 1 34 C2.32 34.33 3.64 34.66 5 35 C3.35 35 1.7 35 0 35 C0 23.45 0 11.9 0 0 Z " fill="#302449" transform="translate(68,142)"/>
<path d="M0 0 C0.33 0 0.66 0 1 0 C1 6.93 1 13.86 1 21 C3.97 21 6.94 21 10 21 C9.01 21.99 8.02 22.98 7 24 C6.01 24 5.02 24 4 24 C4 24.66 4 25.32 4 26 C3.34 26 2.68 26 2 26 C-0.23413013 22.64880481 -0.23847762 21.5822245 -0.1953125 17.67578125 C-0.18886719 16.64775391 -0.18242187 15.61972656 -0.17578125 14.56054688 C-0.15064453 12.95276367 -0.15064453 12.95276367 -0.125 11.3125 C-0.11597656 10.22904297 -0.10695312 9.14558594 -0.09765625 8.02929688 C-0.0740734 5.3526429 -0.04116126 2.67643203 0 0 Z " fill="#34205A" transform="translate(146,150)"/>
<path d="M0 0 C0.33 0 0.66 0 1 0 C0.67 2.64 0.34 5.28 0 8 C3.62885324 8.15149298 3.62885324 8.15149298 7 7 C6.67 8.98 6.34 10.96 6 13 C6.66 13.33 7.32 13.66 8 14 C4.7 14 1.4 14 -2 14 C-2 13.67 -2 13.34 -2 13 C-0.02 12.67 1.96 12.34 4 12 C3.195625 11.7525 2.39125 11.505 1.5625 11.25 C-1 10 -1 10 -1.9375 8.25 C-2.02223882 5.19940251 -1.09110815 2.82404462 0 0 Z " fill="#39255A" transform="translate(193,155)"/>
<path d="M0 0 C0.99 0.33 1.98 0.66 3 1 C3 6.28 3 11.56 3 17 C2.01 17 1.02 17 0 17 C0 11.39 0 5.78 0 0 Z " fill="#412B66" transform="translate(129,143)"/>
<path d="M0 0 C1.98 0.66 3.96 1.32 6 2 C6 5.63 6 9.26 6 13 C5.67 13 5.34 13 5 13 C4.8046875 10.94921875 4.609375 8.8984375 4.4140625 6.84765625 C4.27742187 6.23792969 4.14078125 5.62820312 4 5 C3.34 4.67 2.68 4.34 2 4 C2 7.3 2 10.6 2 14 C1.01 14.495 1.01 14.495 0 15 C0 10.05 0 5.1 0 0 Z " fill="#3A2758" transform="translate(158,152)"/>
<path d="M0 0 C2.2195122 8.56097561 2.2195122 8.56097561 1 11 C1.99 11.33 2.98 11.66 4 12 C1.69 12 -0.62 12 -3 12 C-3.66 10.02 -4.32 8.04 -5 6 C-4.34 5.34 -3.68 4.68 -3 4 C-2.67 4.33 -2.34 4.66 -2 5 C-1.34 3.35 -0.68 1.7 0 0 Z " fill="#4A386A" transform="translate(86,166)"/>
<path d="M0 0 C6.6 0 13.2 0 20 0 C19.67 0.66 19.34 1.32 19 2 C13.39 2 7.78 2 2 2 C2 2.66 2 3.32 2 4 C1.34 4 0.68 4 0 4 C0 2.68 0 1.36 0 0 Z " fill="#2C204B" transform="translate(40,142)"/>
<path d="M0 0 C0.33 0 0.66 0 1 0 C1.19390729 2.31197155 1.37996367 4.6246029 1.5625 6.9375 C1.66691406 8.22527344 1.77132812 9.51304688 1.87890625 10.83984375 C1.91886719 11.88269531 1.95882812 12.92554687 2 14 C1 15 1 15 -1.50390625 15.09765625 C-3.01791016 15.08025391 -3.01791016 15.08025391 -4.5625 15.0625 C-5.57441406 15.05347656 -6.58632812 15.04445313 -7.62890625 15.03515625 C-8.41136719 15.02355469 -9.19382812 15.01195313 -10 15 C-10.66 13.68 -11.32 12.36 -12 11 C-11.34 10.67 -10.68 10.34 -10 10 C-9.01 11.485 -9.01 11.485 -8 13 C-4.43230448 13.73606499 -4.43230448 13.73606499 -1 14 C-0.67 9.38 -0.34 4.76 0 0 Z " fill="#3E2D63" transform="translate(130,110)"/>
<path d="M0 0 C3.96 0 7.92 0 12 0 C12 1.98 12 3.96 12 6 C8.04 6 4.08 6 0 6 C0 5.34 0 4.68 0 4 C4.455 3.505 4.455 3.505 9 3 C9 2.67 9 2.34 9 2 C6.03 1.67 3.06 1.34 0 1 C0 0.67 0 0.34 0 0 Z " fill="#2E1F50" transform="translate(47,156)"/>
<path d="M0 0 C0.33 0 0.66 0 1 0 C1 2.31 1 4.62 1 7 C-1.45862401 7.05383848 -3.9160755 7.09359038 -6.375 7.125 C-7.42300781 7.15013672 -7.42300781 7.15013672 -8.4921875 7.17578125 C-10.32897486 7.19344267 -12.16601963 7.10303261 -14 7 C-14.66 6.34 -15.32 5.68 -16 5 C-14.51886719 4.96132812 -14.51886719 4.96132812 -13.0078125 4.921875 C-11.72648437 4.86515625 -10.44515625 4.8084375 -9.125 4.75 C-7.84882812 4.70359375 -6.57265625 4.6571875 -5.2578125 4.609375 C-1.90811895 4.37444944 -1.90811895 4.37444944 -0.5546875 1.953125 C-0.37164062 1.30859375 -0.18859375 0.6640625 0 0 Z " fill="#463962" transform="translate(60,142)"/>
<path d="M0 0 C3.3125 -0.25 3.3125 -0.25 7 0 C9.44024243 2.3071383 9.96649381 3.65510966 10.29296875 7.015625 C10.25816406 8.08296875 10.22335938 9.1503125 10.1875 10.25 C10.16042969 11.32765625 10.13335937 12.4053125 10.10546875 13.515625 C10.07066406 14.33546875 10.03585938 15.1553125 10 16 C9.67 16 9.34 16 9 16 C8.67 12.37 8.34 8.74 8 5 C7.34 5 6.68 5 6 5 C6 4.34 6 3.68 6 3 C4.68 3 3.36 3 2 3 C2 2.34 2 1.68 2 1 C1.34 0.67 0.68 0.34 0 0 Z " fill="#DED3E8" transform="translate(148,149)"/>
<path d="M0 0 C2.50298434 2.93828597 3.46930939 5.17902761 4 9 C2.02 9.99 0.04 10.98 -2 12 C-2.66 10.68 -3.32 9.36 -4 8 C-2.68 8 -1.36 8 0 8 C0 6.35 0 4.7 0 3 C-0.66 2.67 -1.32 2.34 -2 2 C-1.34 2 -0.68 2 0 2 C0 1.34 0 0.68 0 0 Z " fill="#50436F" transform="translate(121,150)"/>
<path d="M0 0 C0.33 0.99 0.66 1.98 1 3 C0.67 3.33 0.34 3.66 0 4 C-0.28101946 6.31952569 -0.44782625 8.63885514 -0.62109375 10.96875 C-0.74613281 11.6390625 -0.87117188 12.309375 -1 13 C-1.99 13.495 -1.99 13.495 -3 14 C-4.4648776 11.67342969 -5.01737644 10.33884066 -4.875 7.5625 C-3.81089396 4.44618946 -2.1698159 2.44979215 0 0 Z " fill="#EAE1F1" transform="translate(30,148)"/>
<path d="M0 0 C1.9375 0.25 1.9375 0.25 4 1 C4.66 1.99 5.32 2.98 6 4 C6.33 3.34 6.66 2.68 7 2 C6.67 3.32 6.34 4.64 6 6 C3.03 6 0.06 6 -3 6 C-1.125 1.125 -1.125 1.125 0 0 Z " fill="#EFEEF3" transform="translate(87,136)"/>
<path d="M0 0 C1.06992188 0.00644531 2.13984375 0.01289062 3.2421875 0.01953125 C4.35335937 0.03628906 5.46453125 0.05304687 6.609375 0.0703125 C7.73601562 0.07933594 8.86265625 0.08835938 10.0234375 0.09765625 C12.80229865 0.12120592 15.5807289 0.1540957 18.359375 0.1953125 C18.029375 1.1853125 17.699375 2.1753125 17.359375 3.1953125 C8.449375 2.8653125 -0.460625 2.5353125 -9.640625 2.1953125 C-5.67441702 0.21220851 -4.24920212 -0.04520428 0 0 Z " fill="#EBEAEA" transform="translate(132.640625,43.8046875)"/>
<path d="M0 0 C-0.33 1.65 -0.66 3.3 -1 5 C0.98 4.67 2.96 4.34 5 4 C5.33 4.99 5.66 5.98 6 7 C3.03 7 0.06 7 -3 7 C-3.33 5.02 -3.66 3.04 -4 1 C-2 0 -2 0 0 0 Z " fill="#473E5F" transform="translate(29,171)"/>
<path d="M0 0 C0.33 1.32 0.66 2.64 1 4 C0.01 3.67 -0.98 3.34 -2 3 C-3.02703748 8.55493924 -3.02703748 8.55493924 -2 14 C-2.66 14 -3.32 14 -4 14 C-4.33 14.66 -4.66 15.32 -5 16 C-5.56364659 5.24896324 -5.56364659 5.24896324 -2 1 C-1.34 0.67 -0.68 0.34 0 0 Z " fill="#392663" transform="translate(117,142)"/>
<path d="M0 0 C1.32 0.33 2.64 0.66 4 1 C4.144375 2.0725 4.28875 3.145 4.4375 4.25 C4.83749442 6.91662949 5.27591924 9.41399729 6 12 C3 11 3 11 2.05078125 9.2578125 C1.80714844 8.55398437 1.56351563 7.85015625 1.3125 7.125 C1.06113281 6.42632812 0.80976563 5.72765625 0.55078125 5.0078125 C0 3 0 3 0 0 Z " fill="#F1EBF6" transform="translate(202,151)"/>
<path d="M0 0 C2.76223278 2.76223278 2.57856291 5.20706617 3 9 C1.35 9 -0.3 9 -2 9 C-1.34 6.03 -0.68 3.06 0 0 Z " fill="#E8D8F4" transform="translate(195,154)"/>
<path d="M0 0 C0.99 0 1.98 0 3 0 C3.82638376 2.89234315 4 4.88742431 4 8 C3.01 8.33 2.02 8.66 1 9 C-0.4783226 6.04335481 -0.06032783 3.25770263 0 0 Z " fill="#F3F0F2" transform="translate(34,169)"/>
<path d="M0 0 C2.00293347 3.00440021 2.49271626 4.70993945 3.125 8.1875 C3.37636719 9.53908203 3.37636719 9.53908203 3.6328125 10.91796875 C3.75398437 11.60503906 3.87515625 12.29210937 4 13 C3.01 13 2.02 13 1 13 C-0.00496852 9.98509443 -0.10335303 7.95818308 -0.0625 4.8125 C-0.05347656 3.91144531 -0.04445312 3.01039063 -0.03515625 2.08203125 C-0.02355469 1.39496094 -0.01195312 0.70789063 0 0 Z " fill="#544372" transform="translate(204,159)"/>
<path d="M0 0 C6.27 0 12.54 0 19 0 C19 0.33 19 0.66 19 1 C13.72 1 8.44 1 3 1 C3 1.99 3 2.98 3 4 C2.34 4 1.68 4 1 4 C0.67 2.68 0.34 1.36 0 0 Z " fill="#443A57" transform="translate(69,58)"/>
<path d="M0 0 C1.70884005 1.62339805 3.37446717 3.29319053 5 5 C5 5.66 5 6.32 5 7 C3.35 6.67 1.7 6.34 0 6 C0 5.34 0 4.68 0 4 C-0.66 4 -1.32 4 -2 4 C-2 3.34 -2 2.68 -2 2 C-1.34 2 -0.68 2 0 2 C0 1.34 0 0.68 0 0 Z " fill="#3A3055" transform="translate(117,39)"/>
<path d="M0 0 C1.74271938 2.297221 3.39911152 4.59866729 5 7 C5.66 6.67 6.32 6.34 7 6 C6.67 7.65 6.34 9.3 6 11 C5.67 10.34 5.34 9.68 5 9 C2.98330173 7.86649466 2.98330173 7.86649466 1 7 C1 5.68 1 4.36 1 3 C0.34 2.67 -0.32 2.34 -1 2 C-0.67 1.34 -0.34 0.68 0 0 Z " fill="#4D3D70" transform="translate(79,153)"/>
<path d="M0 0 C2.64 0 5.28 0 8 0 C7.34 1.65 6.68 3.3 6 5 C5.01 5 4.02 5 3 5 C3 4.01 3 3.02 3 2 C2.01 2 1.02 2 0 2 C0 1.34 0 0.68 0 0 Z " fill="#32274A" transform="translate(26,142)"/>
<path d="M0 0 C1.65 1.65 3.3 3.3 5 5 C3.1875 6.0625 3.1875 6.0625 1 7 C0.01 6.67 -0.98 6.34 -2 6 C-1.34 4.02 -0.68 2.04 0 0 Z " fill="#E0DDE8" transform="translate(114,121)"/>
<path d="M0 0 C3.63 0 7.26 0 11 0 C11 0.33 11 0.66 11 1 C9.35 1.33 7.7 1.66 6 2 C5.67 2.99 5.34 3.98 5 5 C4.01 4.67 3.02 4.34 2 4 C1.34 2.68 0.68 1.36 0 0 Z " fill="#42345A" transform="translate(103,109)"/>
<path d="M0 0 C1.68762851 1.6454378 3.3540349 3.31288577 5 5 C5 5.33 5 5.66 5 6 C2.03 6 -0.94 6 -4 6 C-4 5.34 -4 4.68 -4 4 C-2.35 4 -0.7 4 1 4 C0.67 2.68 0.34 1.36 0 0 Z " fill="#332A49" transform="translate(65,76)"/>
<path d="M0 0 C1.32 1.65 2.64 3.3 4 5 C3.01 5.99 2.02 6.98 1 8 C-0.32 6.02 -1.64 4.04 -3 2 C-2.01 1.34 -1.02 0.68 0 0 Z " fill="#EAE6F0" transform="translate(120,36)"/>
<path d="M0 0 C0 0.99 0 1.98 0 3 C-2.64 3 -5.28 3 -8 3 C-8 2.34 -8 1.68 -8 1 C-5.29120665 -0.35439668 -2.99066732 -0.06501451 0 0 Z " fill="#FAFBF2" transform="translate(198,173)"/>
<path d="M0 0 C0.33 3.3 0.66 6.6 1 10 C0.67 8.68 0.34 7.36 0 6 C-0.66 6 -1.32 6 -2 6 C-2 5.01 -2 4.02 -2 3 C-3.32 3 -4.64 3 -6 3 C-5.67 2.34 -5.34 1.68 -5 1 C-3.3176559 0.47426747 -1.77322566 0 0 0 Z " fill="#34245C" transform="translate(204,158)"/>
<path d="M0 0 C1.98 0 3.96 0 6 0 C5.67 0.99 5.34 1.98 5 3 C3.02 3 1.04 3 -1 3 C-0.67 2.01 -0.34 1.02 0 0 Z " fill="#3E2672" transform="translate(52,173)"/>
<path d="M0 0 C1.67542976 0.28604898 3.34385343 0.61781233 5 1 C3.68 1.33 2.36 1.66 1 2 C1 3.65 1 5.3 1 7 C1.99 7 2.98 7 4 7 C3.67 7.66 3.34 8.32 3 9 C2.01 8.67 1.02 8.34 0 8 C-0.38063221 5.6739143 -0.71269945 3.33944736 -1 1 C-0.67 0.67 -0.34 0.34 0 0 Z " fill="#382462" transform="translate(21,158)"/>
<path d="M0 0 C1.32 0.33 2.64 0.66 4 1 C4 1.66 4 2.32 4 3 C4.66 3 5.32 3 6 3 C6 3.66 6 4.32 6 5 C5.34 5 4.68 5 4 5 C3.67 5.66 3.34 6.32 3 7 C3 6.34 3 5.68 3 5 C2.34 5 1.68 5 1 5 C0.67 3.35 0.34 1.7 0 0 Z " fill="#F5F4F1" transform="translate(62,137)"/>
<path d="M0 0 C2.31 1.98 4.62 3.96 7 6 C6.01 6.66 5.02 7.32 4 8 C1 6 1 6 0.3125 2.875 C0.209375 1.92625 0.10625 0.9775 0 0 Z " fill="#EAE1EE" transform="translate(103,110)"/>
<path d="M0 0 C0.66 0 1.32 0 2 0 C4 3 4 3 4 7 C2.68 6.34 1.36 5.68 0 5 C0 3.33333333 0 1.66666667 0 0 Z " fill="#392552" transform="translate(159,145)"/>
<path d="M0 0 C0.99 0.33 1.98 0.66 3 1 C3 2.32 3 3.64 3 5 C1.02 5 -0.96 5 -3 5 C-2.01 4.34 -1.02 3.68 0 3 C-0.66 2.34 -1.32 1.68 -2 1 C-1.34 0.67 -0.68 0.34 0 0 Z " fill="#EAE9F0" transform="translate(130,137)"/>
</svg>
